<svg width="26" height="26" viewBox="0 0 26 26" fill="none" xmlns="http://www.w3.org/2000/svg">
<path d="M11.375 18.4708L15.6866 16.0008C16.4125 15.5892 16.4125 14.5383 15.6866 14.1158L11.375 11.6458C10.6491 11.2342 9.74998 11.765 9.74998 12.5883V17.5175C9.74998 18.3517 10.6491 18.8825 11.375 18.4708ZM22.75 6.39167H14.5275L17.7125 3.20667C17.9291 2.99 17.9291 2.65417 17.7125 2.4375C17.4958 2.22083 17.16 2.22083 16.9433 2.4375L13 6.38084L9.05665 2.4375C8.83998 2.22083 8.50415 2.22083 8.28748 2.4375C8.07081 2.65417 8.07081 2.99 8.28748 3.20667L11.4725 6.39167H3.24998C2.05831 6.39167 1.08331 7.35584 1.08331 8.55834V21.5583C1.08331 22.75 2.05831 23.725 3.24998 23.725H22.75C23.9416 23.725 24.9166 22.75 24.9166 21.5583V8.55834C24.9166 7.35584 23.9416 6.39167 22.75 6.39167ZM21.6666 21.5583H4.33331C3.73748 21.5583 3.24998 21.0708 3.24998 20.475V9.64167C3.24998 9.04584 3.73748 8.55834 4.33331 8.55834H21.6666C22.2625 8.55834 22.75 9.04584 22.75 9.64167V20.475C22.75 21.0708 22.2625 21.5583 21.6666 21.5583Z" fill="#E6EEF9"/>
</svg>
